<svg width="200" height="200" viewBox="0 0 200 200" xmlns="http://www.w3.org/2000/svg">

  <!-- Définition du filtre néon -->
  <defs>
    <filter id="neon-glow" x="-50%" y="-50%" width="200%" height="200%">
      <!-- Lueur externe -->
      <feGaussianBlur in="SourceGraphic" stdDeviation="4" result="blurred" />
      <feMerge>
        <feMergeNode in="blurred" />
        <feMergeNode in="SourceGraphic" />
      </feMerge>
    </filter>
  </defs>

  <!-- Halo de fond -->
  <circle cx="100" cy="100" r="100" fill="hsla(160,100%,37%,0.05)" />

  <!-- Cercle interne -->
  <circle cx="100" cy="100" r="60" fill="none" stroke="hsla(160,100%,37%,0.2)" stroke-width="2" />

  <!-- Chevrons < /> avec néon -->
  <polyline
    points="65,70 45,100 65,130"
    fill="none"
    stroke="hsla(160,100%,37%,1)"
    stroke-width="10"
    stroke-linecap="round"
    stroke-linejoin="round"
    filter="url(#neon-glow)"
  />
  <polyline
    points="135,70 155,100 135,130"
    fill="none"
    stroke="hsla(160,100%,37%,1)"
    stroke-width="10"
    stroke-linecap="round"
    stroke-linejoin="round"
    filter="url(#neon-glow)"
  />

  <!-- Barre centrale -->
  <line
    x1="80"
    y1="100"
    x2="120"
    y2="100"
    stroke="hsla(160,100%,37%,1)"
    stroke-width="10"
    stroke-linecap="round"
    filter="url(#neon-glow)"
  />

  <!-- Code “virtuelle” en pointillés -->
  <path
    d="M50,90 h100 M50,110 h100"
    stroke="hsla(160,100%,37%,0.4)"
    stroke-width="2"
    stroke-dasharray="5 5"
  />

  <!-- Noeuds modernes (coins) -->
  <circle cx="50" cy="50" r="8" fill="hsla(160,100%,37%,1)" filter="url(#neon-glow)" />
  <circle cx="150" cy="50" r="8" fill="hsla(160,100%,37%,1)" filter="url(#neon-glow)" />
  <circle cx="150" cy="150" r="8" fill="hsla(160,100%,37%,1)" filter="url(#neon-glow)" />
  <circle cx="50" cy="150" r="8" fill="hsla(160,100%,37%,1)" filter="url(#neon-glow)" />

  <!-- Liaisons pointillées autour -->
  <path d="M58,50 L142,50" stroke="hsla(160,100%,37%,0.3)" stroke-width="4" stroke-dasharray="4 4"/>
  <path d="M150,58 L150,142" stroke="hsla(160,100%,37%,0.3)" stroke-width="4" stroke-dasharray="4 4"/>
  <path d="M142,150 L58,150" stroke="hsla(160,100%,37%,0.3)" stroke-width="4" stroke-dasharray="4 4"/>
  <path d="M50,142 L50,58" stroke="hsla(160,100%,37%,0.3)" stroke-width="4" stroke-dasharray="4 4"/>

</svg>
